<mxfile host="app.diagrams.net" modified="2024-06-18T15:42:39.731Z" agent="Mozilla/5.0 (Windows NT 10.0; Win64; x64) AppleWebKit/537.36 (KHTML, like Gecko) Chrome/125.0.0.0 Safari/537.36" etag="LnrX_Ezufyj517976KY5" version="24.5.5" type="device">
  <diagram id="C5RBs43oDa-KdzZeNtuy" name="Page-1">
    <mxGraphModel dx="1050" dy="565" grid="1" gridSize="10" guides="1" tooltips="1" connect="1" arrows="1" fold="1" page="1" pageScale="1" pageWidth="827" pageHeight="1169" math="0" shadow="0">
      <root>
        <mxCell id="WIyWlLk6GJQsqaUBKTNV-0" />
        <mxCell id="WIyWlLk6GJQsqaUBKTNV-1" parent="WIyWlLk6GJQsqaUBKTNV-0" />
        <mxCell id="Y_ZbaCd7XlsDl82MhfiZ-1" value="" style="edgeStyle=orthogonalEdgeStyle;rounded=0;orthogonalLoop=1;jettySize=auto;html=1;" edge="1" parent="WIyWlLk6GJQsqaUBKTNV-1" source="WIyWlLk6GJQsqaUBKTNV-3" target="Y_ZbaCd7XlsDl82MhfiZ-0">
          <mxGeometry relative="1" as="geometry">
            <Array as="points">
              <mxPoint x="210" y="110" />
              <mxPoint x="210" y="110" />
            </Array>
          </mxGeometry>
        </mxCell>
        <mxCell id="Y_ZbaCd7XlsDl82MhfiZ-5" value="" style="edgeStyle=orthogonalEdgeStyle;rounded=0;orthogonalLoop=1;jettySize=auto;html=1;" edge="1" parent="WIyWlLk6GJQsqaUBKTNV-1" source="WIyWlLk6GJQsqaUBKTNV-3" target="Y_ZbaCd7XlsDl82MhfiZ-4">
          <mxGeometry relative="1" as="geometry">
            <Array as="points">
              <mxPoint x="70" y="20" />
            </Array>
          </mxGeometry>
        </mxCell>
        <mxCell id="WIyWlLk6GJQsqaUBKTNV-3" value="PyMuPDF, OCR" style="rounded=1;whiteSpace=wrap;html=1;fontSize=12;glass=0;strokeWidth=1;shadow=0;fillColor=#d5e8d4;strokeColor=#82b366;" parent="WIyWlLk6GJQsqaUBKTNV-1" vertex="1">
          <mxGeometry x="10" y="90" width="120" height="40" as="geometry" />
        </mxCell>
        <mxCell id="Y_ZbaCd7XlsDl82MhfiZ-15" value="" style="edgeStyle=orthogonalEdgeStyle;rounded=0;orthogonalLoop=1;jettySize=auto;html=1;" edge="1" parent="WIyWlLk6GJQsqaUBKTNV-1" source="Y_ZbaCd7XlsDl82MhfiZ-0" target="Y_ZbaCd7XlsDl82MhfiZ-14">
          <mxGeometry relative="1" as="geometry" />
        </mxCell>
        <mxCell id="Y_ZbaCd7XlsDl82MhfiZ-0" value="Text" style="rounded=1;whiteSpace=wrap;html=1;fontSize=12;glass=0;strokeWidth=1;shadow=0;" vertex="1" parent="WIyWlLk6GJQsqaUBKTNV-1">
          <mxGeometry x="300" y="90" width="120" height="40" as="geometry" />
        </mxCell>
        <mxCell id="Y_ZbaCd7XlsDl82MhfiZ-11" value="" style="edgeStyle=orthogonalEdgeStyle;rounded=0;orthogonalLoop=1;jettySize=auto;html=1;" edge="1" parent="WIyWlLk6GJQsqaUBKTNV-1" source="Y_ZbaCd7XlsDl82MhfiZ-4" target="Y_ZbaCd7XlsDl82MhfiZ-10">
          <mxGeometry relative="1" as="geometry" />
        </mxCell>
        <mxCell id="Y_ZbaCd7XlsDl82MhfiZ-4" value="Images, Tables" style="whiteSpace=wrap;html=1;rounded=1;glass=0;strokeWidth=1;shadow=0;" vertex="1" parent="WIyWlLk6GJQsqaUBKTNV-1">
          <mxGeometry x="300" y="30" width="120" height="40" as="geometry" />
        </mxCell>
        <mxCell id="Y_ZbaCd7XlsDl82MhfiZ-17" value="" style="edgeStyle=orthogonalEdgeStyle;rounded=0;orthogonalLoop=1;jettySize=auto;html=1;" edge="1" parent="WIyWlLk6GJQsqaUBKTNV-1" source="Y_ZbaCd7XlsDl82MhfiZ-10">
          <mxGeometry relative="1" as="geometry">
            <mxPoint x="770" y="50" as="targetPoint" />
          </mxGeometry>
        </mxCell>
        <mxCell id="Y_ZbaCd7XlsDl82MhfiZ-10" value="CLIP" style="whiteSpace=wrap;html=1;rounded=1;glass=0;strokeWidth=1;shadow=0;fillColor=#dae8fc;strokeColor=#6c8ebf;" vertex="1" parent="WIyWlLk6GJQsqaUBKTNV-1">
          <mxGeometry x="510" y="35" width="120" height="30" as="geometry" />
        </mxCell>
        <mxCell id="Y_ZbaCd7XlsDl82MhfiZ-19" value="" style="edgeStyle=orthogonalEdgeStyle;rounded=0;orthogonalLoop=1;jettySize=auto;html=1;" edge="1" parent="WIyWlLk6GJQsqaUBKTNV-1" source="Y_ZbaCd7XlsDl82MhfiZ-14" target="Y_ZbaCd7XlsDl82MhfiZ-18">
          <mxGeometry relative="1" as="geometry" />
        </mxCell>
        <mxCell id="Y_ZbaCd7XlsDl82MhfiZ-28" value="&amp;nbsp; &amp;nbsp; &amp;nbsp; &amp;nbsp; &amp;nbsp; &amp;nbsp; &amp;nbsp; &amp;nbsp; &amp;nbsp; &amp;nbsp; &amp;nbsp;Search in database" style="edgeStyle=orthogonalEdgeStyle;rounded=0;orthogonalLoop=1;jettySize=auto;html=1;exitX=0.75;exitY=1;exitDx=0;exitDy=0;entryX=0;entryY=0.5;entryDx=0;entryDy=0;" edge="1" parent="WIyWlLk6GJQsqaUBKTNV-1" source="Y_ZbaCd7XlsDl82MhfiZ-14" target="Y_ZbaCd7XlsDl82MhfiZ-22">
          <mxGeometry relative="1" as="geometry">
            <mxPoint x="600" y="180" as="targetPoint" />
          </mxGeometry>
        </mxCell>
        <mxCell id="Y_ZbaCd7XlsDl82MhfiZ-14" value="OpenAI Embeddings" style="whiteSpace=wrap;html=1;rounded=1;glass=0;strokeWidth=1;shadow=0;fillColor=#dae8fc;strokeColor=#6c8ebf;" vertex="1" parent="WIyWlLk6GJQsqaUBKTNV-1">
          <mxGeometry x="510" y="90" width="120" height="40" as="geometry" />
        </mxCell>
        <mxCell id="Y_ZbaCd7XlsDl82MhfiZ-20" value="" style="edgeStyle=orthogonalEdgeStyle;rounded=0;orthogonalLoop=1;jettySize=auto;html=1;" edge="1" parent="WIyWlLk6GJQsqaUBKTNV-1" target="Y_ZbaCd7XlsDl82MhfiZ-18">
          <mxGeometry relative="1" as="geometry">
            <mxPoint x="770" y="50" as="sourcePoint" />
          </mxGeometry>
        </mxCell>
        <mxCell id="Y_ZbaCd7XlsDl82MhfiZ-23" value="" style="edgeStyle=orthogonalEdgeStyle;rounded=0;orthogonalLoop=1;jettySize=auto;html=1;" edge="1" parent="WIyWlLk6GJQsqaUBKTNV-1" source="Y_ZbaCd7XlsDl82MhfiZ-18" target="Y_ZbaCd7XlsDl82MhfiZ-22">
          <mxGeometry relative="1" as="geometry" />
        </mxCell>
        <mxCell id="Y_ZbaCd7XlsDl82MhfiZ-18" value="" style="shape=waypoint;sketch=0;size=6;pointerEvents=1;points=[];fillColor=#dae8fc;resizable=0;rotatable=0;perimeter=centerPerimeter;snapToPoint=1;strokeColor=#6c8ebf;rounded=1;glass=0;strokeWidth=1;shadow=0;" vertex="1" parent="WIyWlLk6GJQsqaUBKTNV-1">
          <mxGeometry x="760" y="100" width="20" height="20" as="geometry" />
        </mxCell>
        <mxCell id="Y_ZbaCd7XlsDl82MhfiZ-30" style="edgeStyle=orthogonalEdgeStyle;rounded=0;orthogonalLoop=1;jettySize=auto;html=1;exitX=0.25;exitY=1;exitDx=0;exitDy=0;" edge="1" parent="WIyWlLk6GJQsqaUBKTNV-1" source="Y_ZbaCd7XlsDl82MhfiZ-22" target="Y_ZbaCd7XlsDl82MhfiZ-31">
          <mxGeometry relative="1" as="geometry">
            <mxPoint x="740" y="330" as="targetPoint" />
          </mxGeometry>
        </mxCell>
        <mxCell id="Y_ZbaCd7XlsDl82MhfiZ-22" value="Vector Database(Pinecone)" style="rounded=1;whiteSpace=wrap;html=1;fillColor=#e1d5e7;strokeColor=#9673a6;sketch=0;pointerEvents=1;resizable=0;glass=0;strokeWidth=1;shadow=0;" vertex="1" parent="WIyWlLk6GJQsqaUBKTNV-1">
          <mxGeometry x="710" y="180" width="120" height="60" as="geometry" />
        </mxCell>
        <mxCell id="Y_ZbaCd7XlsDl82MhfiZ-26" value="" style="edgeStyle=orthogonalEdgeStyle;rounded=0;orthogonalLoop=1;jettySize=auto;html=1;" edge="1" parent="WIyWlLk6GJQsqaUBKTNV-1" source="Y_ZbaCd7XlsDl82MhfiZ-24" target="Y_ZbaCd7XlsDl82MhfiZ-25">
          <mxGeometry relative="1" as="geometry" />
        </mxCell>
        <mxCell id="Y_ZbaCd7XlsDl82MhfiZ-24" value="User" style="shape=umlActor;verticalLabelPosition=bottom;verticalAlign=top;html=1;outlineConnect=0;" vertex="1" parent="WIyWlLk6GJQsqaUBKTNV-1">
          <mxGeometry x="60" y="260" width="30" height="60" as="geometry" />
        </mxCell>
        <mxCell id="Y_ZbaCd7XlsDl82MhfiZ-27" style="edgeStyle=orthogonalEdgeStyle;rounded=0;orthogonalLoop=1;jettySize=auto;html=1;entryX=0.5;entryY=1;entryDx=0;entryDy=0;" edge="1" parent="WIyWlLk6GJQsqaUBKTNV-1" source="Y_ZbaCd7XlsDl82MhfiZ-25" target="Y_ZbaCd7XlsDl82MhfiZ-14">
          <mxGeometry relative="1" as="geometry" />
        </mxCell>
        <mxCell id="Y_ZbaCd7XlsDl82MhfiZ-35" style="edgeStyle=orthogonalEdgeStyle;rounded=0;orthogonalLoop=1;jettySize=auto;html=1;exitX=0.5;exitY=1;exitDx=0;exitDy=0;entryX=0;entryY=0.5;entryDx=0;entryDy=0;" edge="1" parent="WIyWlLk6GJQsqaUBKTNV-1" source="Y_ZbaCd7XlsDl82MhfiZ-25" target="Y_ZbaCd7XlsDl82MhfiZ-34">
          <mxGeometry relative="1" as="geometry" />
        </mxCell>
        <mxCell id="Y_ZbaCd7XlsDl82MhfiZ-25" value="query......&lt;div&gt;&lt;br&gt;&lt;/div&gt;" style="shape=parallelogram;perimeter=parallelogramPerimeter;whiteSpace=wrap;html=1;fixedSize=1;verticalAlign=top;" vertex="1" parent="WIyWlLk6GJQsqaUBKTNV-1">
          <mxGeometry x="130" y="275" width="85" height="30" as="geometry" />
        </mxCell>
        <mxCell id="Y_ZbaCd7XlsDl82MhfiZ-36" style="edgeStyle=orthogonalEdgeStyle;rounded=0;orthogonalLoop=1;jettySize=auto;html=1;exitX=0.5;exitY=1;exitDx=0;exitDy=0;entryX=1;entryY=0.5;entryDx=0;entryDy=0;" edge="1" parent="WIyWlLk6GJQsqaUBKTNV-1" source="Y_ZbaCd7XlsDl82MhfiZ-31" target="Y_ZbaCd7XlsDl82MhfiZ-34">
          <mxGeometry relative="1" as="geometry" />
        </mxCell>
        <mxCell id="Y_ZbaCd7XlsDl82MhfiZ-31" value="Most relevant text and images&amp;nbsp;" style="rounded=1;whiteSpace=wrap;html=1;" vertex="1" parent="WIyWlLk6GJQsqaUBKTNV-1">
          <mxGeometry x="680" y="320" width="120" height="60" as="geometry" />
        </mxCell>
        <mxCell id="Y_ZbaCd7XlsDl82MhfiZ-33" value="" style="edgeStyle=orthogonalEdgeStyle;rounded=0;orthogonalLoop=1;jettySize=auto;html=1;" edge="1" parent="WIyWlLk6GJQsqaUBKTNV-1" source="Y_ZbaCd7XlsDl82MhfiZ-32" target="WIyWlLk6GJQsqaUBKTNV-3">
          <mxGeometry relative="1" as="geometry" />
        </mxCell>
        <mxCell id="Y_ZbaCd7XlsDl82MhfiZ-32" value="Installation manuals" style="rounded=1;whiteSpace=wrap;html=1;" vertex="1" parent="WIyWlLk6GJQsqaUBKTNV-1">
          <mxGeometry x="20" y="150" width="100" height="50" as="geometry" />
        </mxCell>
        <mxCell id="Y_ZbaCd7XlsDl82MhfiZ-37" style="edgeStyle=orthogonalEdgeStyle;rounded=0;orthogonalLoop=1;jettySize=auto;html=1;exitX=0.5;exitY=1;exitDx=0;exitDy=0;" edge="1" parent="WIyWlLk6GJQsqaUBKTNV-1" source="Y_ZbaCd7XlsDl82MhfiZ-34" target="Y_ZbaCd7XlsDl82MhfiZ-38">
          <mxGeometry relative="1" as="geometry">
            <mxPoint x="420" y="530" as="targetPoint" />
          </mxGeometry>
        </mxCell>
        <mxCell id="Y_ZbaCd7XlsDl82MhfiZ-34" value="query + retrieval info" style="rounded=1;whiteSpace=wrap;html=1;" vertex="1" parent="WIyWlLk6GJQsqaUBKTNV-1">
          <mxGeometry x="360" y="390" width="120" height="60" as="geometry" />
        </mxCell>
        <mxCell id="Y_ZbaCd7XlsDl82MhfiZ-39" style="edgeStyle=orthogonalEdgeStyle;rounded=0;orthogonalLoop=1;jettySize=auto;html=1;exitX=0.5;exitY=1;exitDx=0;exitDy=0;" edge="1" parent="WIyWlLk6GJQsqaUBKTNV-1" source="Y_ZbaCd7XlsDl82MhfiZ-38" target="Y_ZbaCd7XlsDl82MhfiZ-40">
          <mxGeometry relative="1" as="geometry">
            <mxPoint x="420" y="630" as="targetPoint" />
          </mxGeometry>
        </mxCell>
        <mxCell id="Y_ZbaCd7XlsDl82MhfiZ-38" value="LLM model (ChatGPT)" style="shape=process;whiteSpace=wrap;html=1;backgroundOutline=1;" vertex="1" parent="WIyWlLk6GJQsqaUBKTNV-1">
          <mxGeometry x="360" y="500" width="120" height="60" as="geometry" />
        </mxCell>
        <mxCell id="Y_ZbaCd7XlsDl82MhfiZ-40" value="response" style="shape=callout;whiteSpace=wrap;html=1;perimeter=calloutPerimeter;" vertex="1" parent="WIyWlLk6GJQsqaUBKTNV-1">
          <mxGeometry x="360" y="590" width="120" height="70" as="geometry" />
        </mxCell>
      </root>
    </mxGraphModel>
  </diagram>
</mxfile>
